<?xml version="1.0" encoding="UTF-8"?>
<svg id="Layer_8" data-name="Layer 8" xmlns="http://www.w3.org/2000/svg" viewBox="0 0 1024 1024">
  <path id="BalanceRight" d="M694.34,853.19l84.85,84.85,84.86-84.85-75.22-162.6-.88-1.9v-200.2s-17.5,6.25-17.5,6.25v193.91s-.9,1.95-.9,1.95l-75.21,162.59ZM713.62,853.19l65.57-141.75,65.57,141.75h-131.14Z" style="fill: #c89c3c;"/>
  <path id="BalanceLeft" d="M254.45,690.6l-.9-1.95v-193.91l-17.5-6.25v200.2l-.88,1.9-75.22,162.6,84.86,84.85,84.85-84.85-75.21-162.59ZM179.24,853.19l65.57-141.75,65.57,141.75h-131.14Z" style="fill: #c89c3c;"/>
  <polygon id="Blade" points="577.95 550.03 577.95 899.74 560.45 930.25 522.09 997.14 512 1014.73 501.91 997.14 463.55 930.25 446.05 899.74 446.05 550.03 463.55 572.68 463.55 895.08 512 979.55 560.45 895.08 560.45 572.68 577.95 550.03" style="fill: #c89c3c;"/>
  <polygon id="GemFrame" points="575.86 467.41 593.36 450.31 593.36 515.78 575.86 538.43 523.06 606.75 512 621.05 500.94 606.75 448.14 538.43 430.64 515.78 430.64 450.31 448.14 467.41 448.14 509.81 512 592.44 575.86 509.81 575.86 467.41" style="fill: #c89c3c;"/>
  <polygon id="Gem" points="558.36 384.4 558.36 503.83 512 563.82 465.64 503.83 465.64 384.4 512 324.42 558.36 384.4" style="fill: #c89c3c;"/>
  <polygon id="Guard" points="718.27 227.46 630.53 401.77 575.86 455.17 575.86 378.42 512 295.8 448.14 378.42 448.14 455.17 393.47 401.77 305.73 227.46 463.36 330.11 500.94 281.49 512 267.18 523.06 281.49 560.64 330.11 718.27 227.46" style="fill: #c89c3c;"/>
  <polygon id="Hilt" points="577.55 309.07 562.85 318.66 541.69 291.29 537.11 285.36 537.11 177.33 512 213.04 486.89 177.33 486.89 285.36 482.31 291.29 461.15 318.66 446.45 309.07 469.39 279.39 469.39 152.44 455.43 132.59 512 21.7 568.57 132.59 554.61 152.44 554.61 279.39 577.55 309.07" style="fill: #c89c3c;"/>
  <path id="InnerRight" d="M586.7,630.18v18.82c80.51-30.24,137.8-107.93,137.8-199,0-48.41-16.19-93.04-43.45-128.78l-8.82,17.59c21.92,31.54,34.77,69.86,34.77,111.19,0,81.24-49.67,150.87-120.3,180.18Z" style="fill: #c89c3c;"/>
  <path id="InnerLeft" d="M437.3,630.18v18.82c-80.51-30.24-137.8-107.93-137.8-199,0-48.41,16.19-93.04,43.45-128.78l8.82,17.59c-21.92,31.54-34.77,69.86-34.77,111.19,0,81.24,49.67,150.87,120.3,180.18Z" style="fill: #c89c3c;"/>
  <path id="WingRight" d="M975.62,149.86l-5,25.08-10.74,53.9-4.85,24.33-13.89,9.31-16.5,69.64-5.44,22.95-16.47,9.04-37.08,67.67-12.82,23.4-25.02,9.25-73.03,27c1.09-6.45,1.93-12.98,2.51-19.59l83.34-30.81,33.57-61.27-116.04,63.69c-.16-6.49-.59-12.92-1.25-19.28l132.93-72.95,14.13-7.75,5.58-23.57,10.2-43.08-168.86,113.22c-1.49-5.97-3.2-11.85-5.12-17.64l179.92-120.63,13.59-9.11,1.5-7.52,9.03-45.33-215.56,154.02-7.23,5.17c14.42,30.65,22.48,64.88,22.48,101,0,105.07-68.23,194.2-162.8,225.51v-18.52c84.73-30.58,145.3-111.72,145.3-206.99,0-32.32-6.97-63.01-19.48-90.65-2.45-5.39-5.1-10.67-7.96-15.82l14.33-10.24,7.16-5.11,228.76-163.45,20.81-14.87Z" style="fill: #c89c3c;"/>
  <path id="WingLeft" d="M437.3,656.99v18.52c-94.57-31.31-162.8-120.44-162.8-225.51,0-36.12,8.06-70.35,22.48-101l-7.23-5.17L74.19,189.81l9.03,45.33,1.5,7.52,13.59,9.11,179.92,120.63c-1.92,5.79-3.63,11.67-5.12,17.64l-168.86-113.22,10.2,43.08,5.58,23.57,14.13,7.75,132.93,72.95c-.66,6.36-1.09,12.79-1.25,19.28l-116.04-63.69,33.57,61.27,83.34,30.81c.58,6.61,1.42,13.14,2.51,19.59l-73.03-27-25.02-9.25-12.82-23.4-37.08-67.67-16.47-9.04-5.44-22.95-16.5-69.64-13.89-9.31-4.85-24.33-10.74-53.9-5-25.08,20.81,14.87,228.76,163.45,7.16,5.11,14.33,10.24c-2.86,5.15-5.51,10.43-7.96,15.82-12.51,27.64-19.48,58.33-19.48,90.65,0,95.27,60.57,176.41,145.3,206.99Z" style="fill: #c89c3c;"/>
  <path id="Outer4" d="M705.44,272.57l-8.43,16.82c8.58,9.87,16.38,20.43,23.3,31.59l14.28-10.19c-8.55-13.63-18.31-26.42-29.15-38.22Z" style="fill: #c89c3c;"/>
  <path id="Outer3" d="M563.36,192.53v17.87c35.9,7.65,68.88,23.17,97.06,44.66l15.45-10.13c-32.18-25.75-70.54-44.08-112.51-52.4Z" style="fill: #c89c3c;"/>
  <path id="Outer2" d="M460.64,192.53v17.87c-35.9,7.65-68.88,23.17-97.06,44.66l-15.45-10.13c32.18-25.75,70.54-44.08,112.51-52.4Z" style="fill: #c89c3c;"/>
  <path id="Outer1" d="M318.56,272.57l8.43,16.82c-8.58,9.87-16.38,20.43-23.3,31.59l-14.28-10.19c8.55-13.63,18.31-26.42,29.15-38.22Z" style="fill: #c89c3c;"/>
  <polygon id="Trim" points="538.25 601.4 538.25 888.95 529.5 904.06 517.05 925.55 512 934.27 506.95 925.55 494.5 904.06 485.75 888.95 485.75 601.4 494.5 612.72 494.5 886.61 512 916.82 529.5 886.61 529.5 612.72 538.25 601.4" style="fill: #c89c3c;"/>
</svg>